<svg width="47" height="39" fill="none" xmlns="http://www.w3.org/2000/svg"><path d="M32.625 19.625c-1.833-.75-3.25-1.958-4.25-3.625-1.083-1.583-1.625-3.5-1.625-5.75 0-3 .958-5.458 2.875-7.375C31.542.958 33.917 0 36.75 0c3 0 5.458.958 7.375 2.875C46.042 4.792 47 7.25 47 10.25c0 1.5-.167 2.958-.5 4.375-.417 1.417-1.167 3.542-2.25 6.375l-6.625 17.75h-10l5-19.125zm-26.5 0c-1.833-.75-3.25-1.958-4.25-3.625C.792 14.417.25 12.5.25 10.25c0-3 .958-5.458 2.875-7.375C5.042.958 7.417 0 10.25 0c3 0 5.458.958 7.375 2.875C19.542 4.792 20.5 7.25 20.5 10.25c0 1.5-.167 2.958-.5 4.375-.417 1.417-1.167 3.542-2.25 6.375l-6.625 17.75h-10l5-19.125z" fill="#fff"/></svg>