<svg width="47" height="39" fill="none" xmlns="http://www.w3.org/2000/svg"><path d="M14.375 19.375c1.833.75 3.25 1.958 4.25 3.625 1.083 1.583 1.625 3.5 1.625 5.75 0 3-.958 5.458-2.875 7.375C15.458 38.042 13.083 39 10.25 39c-3 0-5.458-.958-7.375-2.875C.958 34.208 0 31.75 0 28.75c0-1.5.167-2.958.5-4.375.417-1.417 1.167-3.542 2.25-6.375L9.375.25h10l-5 19.125zm26.5 0c1.833.75 3.25 1.958 4.25 3.625 1.083 1.583 1.625 3.5 1.625 5.75 0 3-.958 5.458-2.875 7.375C41.958 38.042 39.583 39 36.75 39c-3 0-5.458-.958-7.375-2.875-1.917-1.917-2.875-4.375-2.875-7.375 0-1.5.167-2.958.5-4.375.417-1.417 1.167-3.542 2.25-6.375L35.875.25h10l-5 19.125z" fill="#fff"/></svg>