<svg width="47" height="39" viewBox="0 0 47 39" fill="none" xmlns="http://www.w3.org/2000/svg">
<path d="M14.375 19.375C16.2083 20.125 17.625 21.3333 18.625 23C19.7083 24.5833 20.25 26.5 20.25 28.75C20.25 31.75 19.2917 34.2083 17.375 36.125C15.4583 38.0417 13.0833 39 10.25 39C7.25 39 4.79167 38.0417 2.875 36.125C0.958334 34.2083 3.53903e-07 31.75 3.53903e-07 28.75C3.53903e-07 27.25 0.166667 25.7917 0.5 24.375C0.916667 22.9583 1.66667 20.8333 2.75 18L9.375 0.249995H19.375L14.375 19.375ZM40.875 19.375C42.7083 20.125 44.125 21.3333 45.125 23C46.2083 24.5833 46.75 26.5 46.75 28.75C46.75 31.75 45.7917 34.2083 43.875 36.125C41.9583 38.0417 39.5833 39 36.75 39C33.75 39 31.2917 38.0417 29.375 36.125C27.4583 34.2083 26.5 31.75 26.5 28.75C26.5 27.25 26.6667 25.7917 27 24.375C27.4167 22.9583 28.1667 20.8333 29.25 18L35.875 0.249995H45.875L40.875 19.375Z" fill="white"/>
</svg>
