<svg width="24" height="25" viewBox="0 0 24 25" fill="none" xmlns="http://www.w3.org/2000/svg">
<path d="M7.155 16.845V18.91H14.925V20.905H7.155V25H3.62V20.905H0.05V18.91H3.62V0.499998H13.245C16.4417 0.499998 18.9383 1.21166 20.735 2.635C22.5317 4.035 23.43 6.04167 23.43 8.655C23.43 11.2917 22.5317 13.3217 20.735 14.745C18.9383 16.145 16.4417 16.845 13.245 16.845H7.155ZM19.895 8.69C19.895 7.03333 19.3233 5.76167 18.18 4.875C17.0367 3.98833 15.3917 3.545 13.245 3.545H7.155V13.94H13.245C15.3683 13.94 17.0017 13.485 18.145 12.575C19.3117 11.6417 19.895 10.3467 19.895 8.69Z" fill="#2E3A59"/>
</svg>
