<svg width="47" height="39" viewBox="0 0 47 39" fill="none" xmlns="http://www.w3.org/2000/svg">
<path d="M32.625 19.625C30.7917 18.875 29.375 17.6667 28.375 16C27.2917 14.4167 26.75 12.5 26.75 10.25C26.75 7.25 27.7083 4.79167 29.625 2.875C31.5417 0.958333 33.9167 -1.80186e-07 36.75 6.75117e-08C39.75 3.2978e-07 42.2083 0.958334 44.125 2.875C46.0417 4.79167 47 7.25 47 10.25C47 11.75 46.8333 13.2083 46.5 14.625C46.0833 16.0417 45.3333 18.1667 44.25 21L37.625 38.75L27.625 38.75L32.625 19.625ZM6.125 19.625C4.29167 18.875 2.875 17.6667 1.875 16C0.791667 14.4167 0.25 12.5 0.250001 10.25C0.250001 7.25 1.20833 4.79166 3.125 2.875C5.04167 0.958331 7.41667 -2.49689e-06 10.25 -2.24919e-06C13.25 -1.98692e-06 15.7083 0.958332 17.625 2.875C19.5417 4.79167 20.5 7.25 20.5 10.25C20.5 11.75 20.3333 13.2083 20 14.625C19.5833 16.0417 18.8333 18.1667 17.75 21L11.125 38.75L1.125 38.75L6.125 19.625Z" fill="white"/>
</svg>
